<?xml version="1.0" standalone="no"?>
<!DOCTYPE svg PUBLIC "-//W3C//DTD SVG 20010904//EN"
 "http://www.w3.org/TR/2001/REC-SVG-20010904/DTD/svg10.dtd">
<svg version="1.0" xmlns="http://www.w3.org/2000/svg"
 width="247.000000pt" height="247.000000pt" viewBox="0 0 247.000000 247.000000"
 preserveAspectRatio="xMidYMid meet">
<metadata>
Created by potrace 1.14, written by Peter Selinger 2001-2017
</metadata>
<g transform="translate(0.000000,247.000000) scale(0.100000,-0.100000)"
fill="#000000" stroke="none">
<path d="M1247 2274 c-2 -3 -14 -6 -26 -9 -28 -5 -70 -36 -107 -77 -16 -18
-38 -33 -49 -32 -68 1 -111 -75 -74 -135 17 -29 17 -33 1 -76 -9 -25 -19 -45
-22 -45 -4 0 -36 -18 -72 -40 -58 -34 -69 -38 -99 -30 -109 28 -290 30 -333 3
-6 -4 -14 -8 -18 -8 -3 0 -21 -11 -38 -23 -92 -68 -73 -206 51 -373 28 -38 55
-69 59 -69 15 0 23 -44 23 -128 -1 -87 1 -82 -61 -150 -65 -71 -121 -185 -129
-258 -5 -52 -2 -68 17 -101 19 -35 64 -73 95 -80 18 -4 70 -14 95 -18 14 -2
31 -14 39 -25 7 -11 20 -20 27 -20 8 0 14 -4 14 -9 0 -4 17 -7 38 -4 35 3 73
32 84 63 2 6 19 15 38 19 30 6 44 1 97 -31 35 -21 67 -38 71 -38 5 0 19 -30
32 -68 64 -193 168 -312 273 -312 51 0 122 51 173 125 19 29 65 119 70 140 20
78 42 116 74 132 19 10 41 24 48 31 7 6 19 12 27 12 7 0 15 5 17 11 3 8 18 8
58 0 146 -29 245 -30 324 -2 61 21 86 41 109 86 18 36 15 115 -6 164 -12 29
-12 38 -1 60 32 61 -4 124 -73 126 -33 1 -45 8 -75 41 -35 38 -36 43 -37 115
0 68 2 77 27 104 15 17 41 48 57 70 17 22 33 42 36 45 25 19 79 156 84 215 6
63 -60 147 -128 161 -46 10 -147 20 -152 16 -2 -3 -24 -6 -47 -7 -24 -1 -71
-8 -106 -14 -57 -11 -65 -10 -90 7 -15 11 -45 29 -68 40 -33 17 -43 29 -53 64
-22 77 -98 222 -137 262 -46 47 -138 88 -157 70z m96 -69 c32 -21 66 -66 99
-130 61 -122 72 -161 40 -151 -118 38 -309 44 -404 13 -36 -11 -48 -12 -48 -3
0 22 25 47 49 49 39 3 71 41 71 86 0 22 -4 43 -10 46 -19 12 -10 34 27 70 57
55 113 62 176 20z m-625 -400 c34 -4 62 -12 62 -18 0 -5 -21 -33 -47 -62 -27
-29 -56 -63 -66 -76 -29 -39 -85 -160 -99 -215 l-13 -50 -21 20 c-33 34 -84
103 -84 115 0 6 -4 11 -9 11 -13 0 -51 112 -51 149 0 108 115 152 328 126z
m1363 -23 c98 -60 79 -184 -53 -352 l-52 -64 -13 44 c-46 149 -97 239 -196
342 -15 16 -25 33 -22 39 4 5 10 7 13 5 4 -2 23 -1 42 4 19 4 82 7 140 6 88
-2 111 -6 141 -24z m-724 -355 c155 -81 150 -301 -8 -383 -33 -17 -35 -27 -14
-77 8 -20 15 -42 15 -50 0 -12 -155 -95 -208 -112 -21 -6 -23 -5 -14 12 24 45
79 202 73 210 -3 5 -25 20 -48 33 -24 13 -43 27 -43 30 0 3 -8 15 -18 26 -85
90 -34 266 92 320 40 17 132 12 173 -9z m655 -387 c-31 -50 23 -135 80 -127
24 3 29 -1 39 -30 19 -59 20 -90 5 -127 -31 -73 -128 -101 -290 -82 -60 7
-106 16 -106 21 0 1 19 22 42 46 72 76 140 195 174 304 5 16 12 49 13 60 1 5
13 -3 28 -18 24 -24 26 -30 15 -47z m-1436 -20 c14 -49 70 -167 84 -180 4 -3
14 -16 23 -30 10 -14 38 -46 63 -72 31 -32 41 -49 33 -54 -7 -4 -21 3 -35 19
-43 50 -109 48 -146 -6 -14 -20 -31 -32 -43 -31 -46 4 -90 16 -93 25 -2 5 -10
9 -17 9 -8 0 -23 13 -34 29 -50 70 -11 188 113 342 25 30 29 26 52 -51z m854
-300 c28 -74 57 -141 64 -150 18 -20 13 -34 -49 -162 -84 -173 -196 -214 -291
-105 -48 55 -118 202 -118 247 0 19 11 60 23 90 13 30 27 65 32 78 6 16 38 36
106 67 54 25 114 54 133 65 19 10 38 16 42 12 3 -4 29 -68 58 -142z"/>
</g>
</svg>
